<mxfile host="Electron" agent="Mozilla/5.0 (Windows NT 10.0; Win64; x64) AppleWebKit/537.36 (KHTML, like Gecko) draw.io/24.7.17 Chrome/128.0.6613.36 Electron/32.0.1 Safari/537.36" version="24.7.17">
  <diagram name="Page-1" id="v-b-XIodhEhu7KvVMlSm">
    <mxGraphModel dx="2044" dy="1166" grid="1" gridSize="10" guides="1" tooltips="1" connect="1" arrows="1" fold="1" page="1" pageScale="1" pageWidth="827" pageHeight="1169" math="0" shadow="0">
      <root>
        <mxCell id="0" />
        <mxCell id="1" parent="0" />
        <mxCell id="Q3ihRbQ_uRLE7GXfk9S9-53" value="" style="rounded=1;whiteSpace=wrap;html=1;absoluteArcSize=1;arcSize=8;strokeColor=none;fillColor=#F0F0F0;" parent="1" vertex="1">
          <mxGeometry x="510" y="120" width="150" height="210" as="geometry" />
        </mxCell>
        <mxCell id="Q3ihRbQ_uRLE7GXfk9S9-52" value="" style="rounded=1;whiteSpace=wrap;html=1;absoluteArcSize=1;arcSize=8;strokeColor=none;fillColor=#F0F0F0;" parent="1" vertex="1">
          <mxGeometry x="350" y="120" width="150" height="150" as="geometry" />
        </mxCell>
        <mxCell id="Q3ihRbQ_uRLE7GXfk9S9-51" value="" style="rounded=1;whiteSpace=wrap;html=1;absoluteArcSize=1;arcSize=8;strokeColor=none;fillColor=#F0F0F0;" parent="1" vertex="1">
          <mxGeometry x="190" y="120" width="150" height="190" as="geometry" />
        </mxCell>
        <mxCell id="Q3ihRbQ_uRLE7GXfk9S9-1" value="unlink" style="text;html=1;align=left;verticalAlign=middle;whiteSpace=wrap;rounded=0;fontFamily=Fira Code Retina;fontColor=#000000;" parent="1" vertex="1">
          <mxGeometry x="220" y="160" width="50" height="20" as="geometry" />
        </mxCell>
        <mxCell id="Q3ihRbQ_uRLE7GXfk9S9-2" value="linked" style="text;html=1;align=left;verticalAlign=middle;whiteSpace=wrap;rounded=0;fontFamily=Fira Code Retina;" parent="1" vertex="1">
          <mxGeometry x="220" y="180" width="50" height="20" as="geometry" />
        </mxCell>
        <mxCell id="Q3ihRbQ_uRLE7GXfk9S9-3" value="conv1x1_bn_relu" style="text;html=1;align=left;verticalAlign=middle;whiteSpace=wrap;rounded=0;fontFamily=Fira Code Retina;" parent="1" vertex="1">
          <mxGeometry x="220" y="200" width="50" height="20" as="geometry" />
        </mxCell>
        <mxCell id="Q3ihRbQ_uRLE7GXfk9S9-4" value="conv3x3_bn_relu" style="text;html=1;align=left;verticalAlign=middle;whiteSpace=wrap;rounded=0;fontFamily=Fira Code Retina;" parent="1" vertex="1">
          <mxGeometry x="220" y="220" width="50" height="20" as="geometry" />
        </mxCell>
        <mxCell id="Q3ihRbQ_uRLE7GXfk9S9-7" value="maxpool3x3" style="text;html=1;align=left;verticalAlign=middle;whiteSpace=wrap;rounded=0;fontFamily=Fira Code Retina;" parent="1" vertex="1">
          <mxGeometry x="220" y="240" width="50" height="20" as="geometry" />
        </mxCell>
        <mxCell id="Q3ihRbQ_uRLE7GXfk9S9-8" value="input" style="text;html=1;align=left;verticalAlign=middle;whiteSpace=wrap;rounded=0;fontFamily=Fira Code Retina;" parent="1" vertex="1">
          <mxGeometry x="220" y="260" width="50" height="20" as="geometry" />
        </mxCell>
        <mxCell id="Q3ihRbQ_uRLE7GXfk9S9-9" value="output" style="text;html=1;align=left;verticalAlign=middle;whiteSpace=wrap;rounded=0;fontFamily=Fira Code Retina;" parent="1" vertex="1">
          <mxGeometry x="220" y="280" width="50" height="20" as="geometry" />
        </mxCell>
        <mxCell id="Q3ihRbQ_uRLE7GXfk9S9-10" value="0" style="text;html=1;align=right;verticalAlign=middle;whiteSpace=wrap;rounded=0;fontFamily=Fira Code Retina;fontColor=#000000;" parent="1" vertex="1">
          <mxGeometry x="200" y="160" width="10" height="20" as="geometry" />
        </mxCell>
        <mxCell id="Q3ihRbQ_uRLE7GXfk9S9-11" value="1" style="text;html=1;align=right;verticalAlign=middle;whiteSpace=wrap;rounded=0;fontFamily=Fira Code Retina;" parent="1" vertex="1">
          <mxGeometry x="200" y="180" width="10" height="20" as="geometry" />
        </mxCell>
        <mxCell id="Q3ihRbQ_uRLE7GXfk9S9-12" value="2" style="text;html=1;align=right;verticalAlign=middle;whiteSpace=wrap;rounded=0;fontFamily=Fira Code Retina;" parent="1" vertex="1">
          <mxGeometry x="200" y="200" width="10" height="20" as="geometry" />
        </mxCell>
        <mxCell id="Q3ihRbQ_uRLE7GXfk9S9-13" value="3" style="text;html=1;align=right;verticalAlign=middle;whiteSpace=wrap;rounded=0;fontFamily=Fira Code Retina;" parent="1" vertex="1">
          <mxGeometry x="200" y="220" width="10" height="20" as="geometry" />
        </mxCell>
        <mxCell id="Q3ihRbQ_uRLE7GXfk9S9-14" value="4" style="text;html=1;align=right;verticalAlign=middle;whiteSpace=wrap;rounded=0;fontFamily=Fira Code Retina;" parent="1" vertex="1">
          <mxGeometry x="200" y="240" width="10" height="20" as="geometry" />
        </mxCell>
        <mxCell id="Q3ihRbQ_uRLE7GXfk9S9-15" value="5" style="text;html=1;align=right;verticalAlign=middle;whiteSpace=wrap;rounded=0;fontFamily=Fira Code Retina;" parent="1" vertex="1">
          <mxGeometry x="200" y="260" width="10" height="20" as="geometry" />
        </mxCell>
        <mxCell id="Q3ihRbQ_uRLE7GXfk9S9-16" value="6" style="text;html=1;align=right;verticalAlign=middle;whiteSpace=wrap;rounded=0;fontFamily=Fira Code Retina;" parent="1" vertex="1">
          <mxGeometry x="200" y="280" width="10" height="20" as="geometry" />
        </mxCell>
        <mxCell id="Q3ihRbQ_uRLE7GXfk9S9-17" value="unlink" style="text;html=1;align=left;verticalAlign=middle;whiteSpace=wrap;rounded=0;fontFamily=Fira Code Retina;fontColor=#000000;" parent="1" vertex="1">
          <mxGeometry x="380" y="160" width="50" height="20" as="geometry" />
        </mxCell>
        <mxCell id="Q3ihRbQ_uRLE7GXfk9S9-18" value="skip_connect" style="text;html=1;align=left;verticalAlign=middle;whiteSpace=wrap;rounded=0;fontFamily=Fira Code Retina;" parent="1" vertex="1">
          <mxGeometry x="380" y="180" width="50" height="20" as="geometry" />
        </mxCell>
        <mxCell id="Q3ihRbQ_uRLE7GXfk9S9-19" value="nor_conv_1x1" style="text;html=1;align=left;verticalAlign=middle;whiteSpace=wrap;rounded=0;fontFamily=Fira Code Retina;" parent="1" vertex="1">
          <mxGeometry x="380" y="200" width="50" height="20" as="geometry" />
        </mxCell>
        <mxCell id="Q3ihRbQ_uRLE7GXfk9S9-20" value="nor_conv_3x3" style="text;html=1;align=left;verticalAlign=middle;whiteSpace=wrap;rounded=0;fontFamily=Fira Code Retina;" parent="1" vertex="1">
          <mxGeometry x="380" y="220" width="50" height="20" as="geometry" />
        </mxCell>
        <mxCell id="Q3ihRbQ_uRLE7GXfk9S9-21" value="avg_pool_3x3" style="text;html=1;align=left;verticalAlign=middle;whiteSpace=wrap;rounded=0;fontFamily=Fira Code Retina;" parent="1" vertex="1">
          <mxGeometry x="380" y="240" width="50" height="20" as="geometry" />
        </mxCell>
        <mxCell id="Q3ihRbQ_uRLE7GXfk9S9-24" value="0" style="text;html=1;align=right;verticalAlign=middle;whiteSpace=wrap;rounded=0;fontFamily=Fira Code Retina;fontColor=#000000;" parent="1" vertex="1">
          <mxGeometry x="320" y="160" width="50" height="20" as="geometry" />
        </mxCell>
        <mxCell id="Q3ihRbQ_uRLE7GXfk9S9-25" value="1" style="text;html=1;align=right;verticalAlign=middle;whiteSpace=wrap;rounded=0;fontFamily=Fira Code Retina;" parent="1" vertex="1">
          <mxGeometry x="320" y="180" width="50" height="20" as="geometry" />
        </mxCell>
        <mxCell id="Q3ihRbQ_uRLE7GXfk9S9-26" value="2" style="text;html=1;align=right;verticalAlign=middle;whiteSpace=wrap;rounded=0;fontFamily=Fira Code Retina;" parent="1" vertex="1">
          <mxGeometry x="320" y="200" width="50" height="20" as="geometry" />
        </mxCell>
        <mxCell id="Q3ihRbQ_uRLE7GXfk9S9-27" value="3" style="text;html=1;align=right;verticalAlign=middle;whiteSpace=wrap;rounded=0;fontFamily=Fira Code Retina;" parent="1" vertex="1">
          <mxGeometry x="320" y="220" width="50" height="20" as="geometry" />
        </mxCell>
        <mxCell id="Q3ihRbQ_uRLE7GXfk9S9-28" value="4" style="text;html=1;align=right;verticalAlign=middle;whiteSpace=wrap;rounded=0;fontFamily=Fira Code Retina;" parent="1" vertex="1">
          <mxGeometry x="320" y="240" width="50" height="20" as="geometry" />
        </mxCell>
        <mxCell id="Q3ihRbQ_uRLE7GXfk9S9-31" value="unlink" style="text;html=1;align=left;verticalAlign=middle;whiteSpace=wrap;rounded=0;fontFamily=Fira Code Retina;fontColor=#000000;" parent="1" vertex="1">
          <mxGeometry x="540" y="160" width="50" height="20" as="geometry" />
        </mxCell>
        <mxCell id="Q3ihRbQ_uRLE7GXfk9S9-32" value="skip_connect" style="text;html=1;align=left;verticalAlign=middle;whiteSpace=wrap;rounded=0;fontFamily=Fira Code Retina;" parent="1" vertex="1">
          <mxGeometry x="540" y="180" width="50" height="20" as="geometry" />
        </mxCell>
        <mxCell id="Q3ihRbQ_uRLE7GXfk9S9-33" value="max_pool_3x3" style="text;html=1;align=left;verticalAlign=middle;whiteSpace=wrap;rounded=0;fontFamily=Fira Code Retina;" parent="1" vertex="1">
          <mxGeometry x="540" y="200" width="50" height="20" as="geometry" />
        </mxCell>
        <mxCell id="Q3ihRbQ_uRLE7GXfk9S9-34" value="avg_pool_3x3" style="text;html=1;align=left;verticalAlign=middle;whiteSpace=wrap;rounded=0;fontFamily=Fira Code Retina;" parent="1" vertex="1">
          <mxGeometry x="540" y="220" width="50" height="20" as="geometry" />
        </mxCell>
        <mxCell id="Q3ihRbQ_uRLE7GXfk9S9-35" value="sep_conv_3x3" style="text;html=1;align=left;verticalAlign=middle;whiteSpace=wrap;rounded=0;fontFamily=Fira Code Retina;" parent="1" vertex="1">
          <mxGeometry x="540" y="240" width="50" height="20" as="geometry" />
        </mxCell>
        <mxCell id="Q3ihRbQ_uRLE7GXfk9S9-36" value="sep_conv_5x5" style="text;html=1;align=left;verticalAlign=middle;whiteSpace=wrap;rounded=0;fontFamily=Fira Code Retina;" parent="1" vertex="1">
          <mxGeometry x="540" y="260" width="50" height="20" as="geometry" />
        </mxCell>
        <mxCell id="Q3ihRbQ_uRLE7GXfk9S9-37" value="dil_conv_3x3" style="text;html=1;align=left;verticalAlign=middle;whiteSpace=wrap;rounded=0;fontFamily=Fira Code Retina;" parent="1" vertex="1">
          <mxGeometry x="540" y="280" width="50" height="20" as="geometry" />
        </mxCell>
        <mxCell id="Q3ihRbQ_uRLE7GXfk9S9-38" value="0" style="text;html=1;align=right;verticalAlign=middle;whiteSpace=wrap;rounded=0;fontFamily=Fira Code Retina;fontColor=#000000;" parent="1" vertex="1">
          <mxGeometry x="480" y="160" width="50" height="20" as="geometry" />
        </mxCell>
        <mxCell id="Q3ihRbQ_uRLE7GXfk9S9-39" value="1" style="text;html=1;align=right;verticalAlign=middle;whiteSpace=wrap;rounded=0;fontFamily=Fira Code Retina;" parent="1" vertex="1">
          <mxGeometry x="480" y="180" width="50" height="20" as="geometry" />
        </mxCell>
        <mxCell id="Q3ihRbQ_uRLE7GXfk9S9-40" value="2" style="text;html=1;align=right;verticalAlign=middle;whiteSpace=wrap;rounded=0;fontFamily=Fira Code Retina;" parent="1" vertex="1">
          <mxGeometry x="480" y="200" width="50" height="20" as="geometry" />
        </mxCell>
        <mxCell id="Q3ihRbQ_uRLE7GXfk9S9-41" value="3" style="text;html=1;align=right;verticalAlign=middle;whiteSpace=wrap;rounded=0;fontFamily=Fira Code Retina;" parent="1" vertex="1">
          <mxGeometry x="480" y="220" width="50" height="20" as="geometry" />
        </mxCell>
        <mxCell id="Q3ihRbQ_uRLE7GXfk9S9-42" value="4" style="text;html=1;align=right;verticalAlign=middle;whiteSpace=wrap;rounded=0;fontFamily=Fira Code Retina;" parent="1" vertex="1">
          <mxGeometry x="480" y="240" width="50" height="20" as="geometry" />
        </mxCell>
        <mxCell id="Q3ihRbQ_uRLE7GXfk9S9-43" value="5" style="text;html=1;align=right;verticalAlign=middle;whiteSpace=wrap;rounded=0;fontFamily=Fira Code Retina;" parent="1" vertex="1">
          <mxGeometry x="480" y="260" width="50" height="20" as="geometry" />
        </mxCell>
        <mxCell id="Q3ihRbQ_uRLE7GXfk9S9-44" value="6" style="text;html=1;align=right;verticalAlign=middle;whiteSpace=wrap;rounded=0;fontFamily=Fira Code Retina;" parent="1" vertex="1">
          <mxGeometry x="480" y="280" width="50" height="20" as="geometry" />
        </mxCell>
        <mxCell id="Q3ihRbQ_uRLE7GXfk9S9-45" value="7" style="text;html=1;align=right;verticalAlign=middle;whiteSpace=wrap;rounded=0;fontFamily=Fira Code Retina;" parent="1" vertex="1">
          <mxGeometry x="480" y="300" width="50" height="20" as="geometry" />
        </mxCell>
        <mxCell id="Q3ihRbQ_uRLE7GXfk9S9-46" value="dil_conv_5x5" style="text;html=1;align=left;verticalAlign=middle;whiteSpace=wrap;rounded=0;fontFamily=Fira Code Retina;" parent="1" vertex="1">
          <mxGeometry x="540" y="300" width="50" height="20" as="geometry" />
        </mxCell>
        <mxCell id="Q3ihRbQ_uRLE7GXfk9S9-47" value="NAS-Bench-101" style="text;html=1;align=left;verticalAlign=middle;whiteSpace=wrap;rounded=0;fontFamily=Fira Code Retina;fontColor=#DB2D67;fontStyle=1" parent="1" vertex="1">
          <mxGeometry x="200" y="130" width="120" height="20" as="geometry" />
        </mxCell>
        <mxCell id="Q3ihRbQ_uRLE7GXfk9S9-49" value="NAS-Bench-201" style="text;html=1;align=left;verticalAlign=middle;whiteSpace=wrap;rounded=0;fontFamily=Fira Code Retina;fontColor=#DB2D67;fontStyle=1" parent="1" vertex="1">
          <mxGeometry x="360" y="130" width="120" height="20" as="geometry" />
        </mxCell>
        <mxCell id="Q3ihRbQ_uRLE7GXfk9S9-50" value="DARTS" style="text;html=1;align=left;verticalAlign=middle;whiteSpace=wrap;rounded=0;fontFamily=Fira Code Retina;fontColor=#DB2D67;fontStyle=1" parent="1" vertex="1">
          <mxGeometry x="520" y="130" width="120" height="20" as="geometry" />
        </mxCell>
      </root>
    </mxGraphModel>
  </diagram>
</mxfile>
